<svg width="40" height="40" viewBox="0 0 40 40" fill="none" xmlns="http://www.w3.org/2000/svg">
<rect x="0.5" y="0.5" width="39" height="39" rx="19.5" stroke="#848386"/>
<path d="M24.6746 21.4615C25.0581 21.0635 25.1129 20.495 24.7842 19.9264C24.5102 19.4716 24.0172 19.2442 23.4693 19.3579C23.2502 19.4147 23.0311 19.5284 22.8119 19.699C21.1136 20.893 18.8127 20.8361 17.1143 19.6421C17.0048 19.5853 16.8952 19.5284 16.7856 19.4716C16.183 19.1873 15.5804 19.301 15.2517 19.8696C14.8682 20.4381 14.923 21.0636 15.416 21.5753C15.5256 21.689 15.6352 21.7458 15.6899 21.8595L15.7447 21.9164C16.5117 22.5418 17.443 22.9398 18.6483 23.1104L17.9361 23.8495C17.3335 24.4749 16.6761 25.1572 16.0734 25.7826C15.9091 25.9532 15.6899 26.2375 15.6899 26.6355C15.6899 27.1472 15.9639 27.6589 16.4569 27.8863C16.6213 28 16.7856 28 16.95 28C17.2239 28 17.5526 27.8863 17.7717 27.602C18.5935 26.7492 19.2509 26.0669 19.9083 25.3846C19.9631 25.3278 19.9631 25.3278 19.9631 25.3278C19.9631 25.3278 20.0179 25.3278 20.0179 25.3846C20.4562 25.8963 20.9493 26.3512 21.3875 26.8629C21.6067 27.0903 21.8258 27.3177 22.0449 27.5452C22.3189 27.8294 22.538 27.9431 22.8667 27.9431C23.3598 28 23.9076 27.6589 24.1268 27.1472C24.3459 26.6923 24.2363 26.1237 23.8528 25.7826C23.305 25.2141 22.7571 24.5886 22.1545 24.0201L21.2232 23.0535C21.7162 22.9967 22.2641 22.8829 22.7571 22.6555C23.5789 22.3712 24.1815 21.9732 24.6746 21.4615Z" fill="#848386"/>
<path d="M19.9631 19.8696C22.3189 19.8696 24.2363 17.9364 24.2363 15.4916C24.2363 14.2977 23.798 13.1605 22.9763 12.3077C22.1545 11.4549 21.1136 11 20.0179 11C17.6622 11 15.7995 12.99 15.7447 15.3779C15.7447 16.5719 16.183 17.6522 17.0048 18.505C17.7718 19.4147 18.8127 19.8696 19.9631 19.8696ZM18.7579 14.1839C19.0866 13.8428 19.5249 13.6722 19.9631 13.6722C20.9492 13.6722 21.6615 14.4682 21.6615 15.4348C21.6615 16.4582 20.8945 17.1973 19.9631 17.1973C18.977 17.1973 18.2648 16.4013 18.2648 15.4348C18.2648 14.9799 18.4292 14.5251 18.7579 14.1839Z" fill="#848386"/>
<path d="M24.6746 21.4615C25.0581 21.0635 25.1129 20.495 24.7842 19.9264C24.5102 19.4716 24.0172 19.2442 23.4693 19.3579C23.2502 19.4147 23.0311 19.5284 22.8119 19.699C21.1136 20.893 18.8127 20.8361 17.1143 19.6421C17.0048 19.5853 16.8952 19.5284 16.7856 19.4716C16.183 19.1873 15.5804 19.301 15.2517 19.8696C14.8682 20.4381 14.923 21.0636 15.416 21.5753C15.5256 21.689 15.6352 21.7458 15.6899 21.8595L15.7447 21.9164C16.5117 22.5418 17.443 22.9398 18.6483 23.1104L17.9361 23.8495C17.3335 24.4749 16.6761 25.1572 16.0734 25.7826C15.9091 25.9532 15.6899 26.2375 15.6899 26.6355C15.6899 27.1472 15.9639 27.6589 16.4569 27.8863C16.6213 28 16.7856 28 16.95 28C17.2239 28 17.5526 27.8863 17.7717 27.602C18.5935 26.7492 19.2509 26.0669 19.9083 25.3846C19.9631 25.3278 19.9631 25.3278 19.9631 25.3278C19.9631 25.3278 20.0179 25.3278 20.0179 25.3846C20.4562 25.8963 20.9493 26.3512 21.3875 26.8629C21.6067 27.0903 21.8258 27.3177 22.0449 27.5452C22.3189 27.8294 22.538 27.9431 22.8667 27.9431C23.3598 28 23.9076 27.6589 24.1268 27.1472C24.3459 26.6923 24.2363 26.1237 23.8528 25.7826C23.305 25.2141 22.7571 24.5886 22.1545 24.0201L21.2232 23.0535C21.7162 22.9967 22.2641 22.8829 22.7571 22.6555C23.5789 22.3712 24.1815 21.9732 24.6746 21.4615Z" fill="#848386"/>
</svg>
