<svg width="13" height="17" viewBox="0 0 13 17" fill="none" xmlns="http://www.w3.org/2000/svg">
<path d="M8.894 8.49995L2.5 4.23695V12.7629L8.894 8.49995ZM11.876 8.91595L1.277 15.9819C1.20171 16.0321 1.11423 16.0608 1.02389 16.0651C0.933553 16.0694 0.843733 16.0492 0.763999 16.0065C0.684265 15.9638 0.617604 15.9003 0.571114 15.8227C0.524624 15.7451 0.500047 15.6564 0.5 15.5659V1.43395C0.500047 1.3435 0.524624 1.25477 0.571114 1.17719C0.617604 1.09961 0.684265 1.03609 0.763999 0.993405C0.843733 0.950717 0.933553 0.930454 1.02389 0.934775C1.11423 0.939097 1.20171 0.967841 1.277 1.01795L11.876 8.08395C11.9445 8.12961 12.0006 8.19147 12.0395 8.26404C12.0783 8.33661 12.0986 8.41764 12.0986 8.49995C12.0986 8.58225 12.0783 8.66329 12.0395 8.73585C12.0006 8.80842 11.9445 8.87029 11.876 8.91595Z" fill="#0A0A0A"/>
</svg>
