<svg width="40" height="40" viewBox="0 0 40 40" fill="none" xmlns="http://www.w3.org/2000/svg">
<rect x="0.5" y="0.5" width="39" height="39" rx="19.5" stroke="#848386"/>
<path d="M25.6585 14.3333C24.1533 12.8333 22.1463 12 20.0279 12C15.6237 12 12.0557 15.5556 12.0557 19.9444C12.0557 21.3333 12.446 22.7222 13.115 23.8889L12 28L16.2369 26.8889C17.4077 27.5 18.6899 27.8333 20.0279 27.8333C24.4321 27.8333 28 24.2778 28 19.8889C27.9443 17.8333 27.1638 15.8333 25.6585 14.3333ZM23.8746 22.7778C23.7073 23.2222 22.9268 23.6667 22.5366 23.7222C22.2021 23.7778 21.7561 23.7778 21.3101 23.6667C21.0314 23.5556 20.6411 23.4444 20.1951 23.2222C18.1882 22.3889 16.9059 20.3889 16.7944 20.2222C16.6829 20.1111 15.9582 19.1667 15.9582 18.1667C15.9582 17.1667 16.4599 16.7222 16.6272 16.5C16.7944 16.2778 17.0174 16.2778 17.1847 16.2778C17.2962 16.2778 17.4634 16.2778 17.5749 16.2778C17.6864 16.2778 17.8537 16.2222 18.0209 16.6111C18.1882 17 18.5784 18 18.6341 18.0556C18.6899 18.1667 18.6899 18.2778 18.6341 18.3889C18.5784 18.5 18.5226 18.6111 18.4111 18.7222C18.2996 18.8333 18.1882 19 18.1324 19.0556C18.0209 19.1667 17.9094 19.2778 18.0209 19.4444C18.1324 19.6667 18.5226 20.2778 19.1359 20.8333C19.9164 21.5 20.5296 21.7222 20.7526 21.8333C20.9756 21.9444 21.0871 21.8889 21.1986 21.7778C21.3101 21.6667 21.7003 21.2222 21.8118 21C21.9233 20.7778 22.0906 20.8333 22.2578 20.8889C22.4251 20.9444 23.4286 21.4444 23.5958 21.5556C23.8188 21.6667 23.9303 21.7222 23.9861 21.7778C24.0418 21.9444 24.0418 22.3333 23.8746 22.7778Z" fill="#848386"/>
</svg>
