<svg width="40" height="40" viewBox="0 0 40 40" fill="none" xmlns="http://www.w3.org/2000/svg">
<rect x="0.5" y="0.5" width="39" height="39" rx="19.5" stroke="#848386"/>
<path fill-rule="evenodd" clip-rule="evenodd" d="M13.6454 25.6455C13.3602 25.5526 13.0999 25.3874 12.8865 25.1639C12.6732 24.9403 12.513 24.665 12.4196 24.361C11.8858 22.7899 11.7276 16.2295 12.7557 14.9345C13.0979 14.5132 13.581 14.2538 14.1002 14.2126C16.8584 13.8941 25.38 13.9366 26.3587 14.3188C26.634 14.4147 26.8855 14.5762 27.0943 14.7913C27.3032 15.0064 27.464 15.2695 27.5648 15.5608C28.148 17.1849 28.1678 23.0871 27.4857 24.6476C27.3047 25.0538 27.0018 25.3828 26.6256 25.5818C25.5975 26.1338 15.0097 26.1231 13.6454 25.6455ZM18.0249 22.567L22.9678 19.807L18.0249 17.0257V22.567Z" fill="#848386"/>
</svg>
